<?xml version="1.0" encoding="UTF-8"?>
<svg width="24" height="24" viewBox="0 0 24 24" fill="none" xmlns="http://www.w3.org/2000/svg">
    <path d="M16 4C18.21 4 20 5.79 20 8C20 10.21 18.21 12 16 12C13.79 12 12 10.21 12 8C12 5.79 13.79 4 16 4ZM16 14C18.67 14 24 15.34 24 18V20H8V18C8 15.34 13.33 14 16 14Z" fill="currentColor"/>
    <path d="M8 12C10.21 12 12 10.21 12 8C12 5.79 10.21 4 8 4C5.79 4 4 5.79 4 8C4 10.21 5.79 12 8 12ZM8 14C5.33 14 0 15.34 0 18V20H8V18C8 16.9 8.7 15.65 10.1 14.73C9.45 14.49 8.75 14.38 8 14.38V14Z" fill="currentColor"/>
</svg>