<?xml version="1.0" encoding="UTF-8"?>
<svg width="24" height="24" viewBox="0 0 24 24" fill="none" xmlns="http://www.w3.org/2000/svg">
    <path d="M12 9C10.5 9 8.91 9.34 7.5 10.02L4.27 6.79C6.69 5.61 9.26 5 12 5C14.74 5 17.31 5.61 19.73 6.79L16.5 10.02C15.09 9.34 13.5 9 12 9Z" fill="currentColor"/>
    <path d="M21 15.46L15.27 9.73C13.2 8.61 10.8 8.61 8.73 9.73L3 15.46C2.27 16.19 2.27 17.35 3 18.08L5.08 20.16C5.81 20.89 6.97 20.89 7.7 20.16L9.24 18.62C10.33 17.53 11.67 17.53 12.76 18.62L14.3 20.16C15.03 20.89 16.19 20.89 16.92 20.16L19 18.08C19.73 17.35 19.73 16.19 19 15.46H21Z" fill="#F44336"/>
</svg>